<?xml version="1.0" encoding="utf-8"?>
<!-- Generator: Adobe Illustrator 22.1.0, SVG Export Plug-In . SVG Version: 6.00 Build 0)  -->
<svg version="1.1" id="Layer_1" xmlns:svg="http://www.w3.org/2000/svg"
	 xmlns="http://www.w3.org/2000/svg" xmlns:xlink="http://www.w3.org/1999/xlink" x="0px" y="0px" viewBox="0 0 598.9 230.9"
	 style="enable-background:new 0 0 598.9 230.9;" xml:space="preserve">
<style type="text/css">
	.st0{fill:#0862AF;}
	.st1{fill:#ED1C24;}
</style>
<title>Layer 1</title>
<path id="svg_29" class="st0" d="M453.4,96.3c-14.1-4.9-18.5-7.8-18.5-13.1c0-5.9,4.9-9.4,13.6-9.4c7.1,0,14.2,2,19.5,4.1l2.3-25.6
	c-6.5-1.8-14.4-3.2-23-3.2c-28.4,0-46.7,16.2-46.7,37.5c-0.2,13.6,8.9,26.5,32.6,34.5c13.4,4.5,16.9,7.3,16.9,13.1
	c0,5.9-4.5,9.6-15.3,9.6c-10.5,0-24.1-4.7-30.7-8.7l-6.3,25.6c8.7,4.7,22,8,37.1,8c32.9,0,49.7-15.7,49.7-37.1
	C484.4,114.8,475.3,103.8,453.4,96.3L453.4,96.3L453.4,96.3z M539.7,139.7c-10.8,0-14.1-6.3-14.1-20.2V20.6l-34.9,8v23.1h-13.3
	L475,78h15.8v46.8c0,16.2,3.3,27.2,9.9,34c5.6,5.9,15.2,9.9,26.7,9.9c10.1,0,18.5-1.2,23.2-3.1l-0.2-27
	C547.7,139.1,544.2,139.6,539.7,139.7L539.7,139.7L539.7,139.7z M528.4,78h21.9V51.7h-21.9V78L528.4,78z M132.3,111.1
	C131.6,93.5,131,72.3,131,51h-0.7c-4.7,18.7-11.1,39.5-17,56.6l-18.6,57.1H67.9l-16.3-56.7c-5-17.2-10.2-38-13.8-57.1h-0.4
	c-0.9,19.7-1.6,42.3-2.7,60.6L32,167H0L9.7,20.7h45.9l14.9,48.8c4.7,16.9,9.5,35.2,12.9,52.3h0.7c4.3-16.9,9.5-36.3,14.5-52.5
	l16.3-48.6h45l8.4,146.3h-33.7L132.3,111.1L132.3,111.1L132.3,111.1z M321.2,120.4c1.2,14.8,15.7,21.8,32.4,21.8
	c12.2,0,22-1.6,31.7-4.7l4.7,24.2c-11.7,4.7-26,7-41.5,7c-38.9,0-61.2-22.5-61.2-58.4c0-29.1,18.1-61.2,57.9-61.2
	c37.1,0,51.1,28.8,51.1,57.2c0,6.1-0.7,11.5-1.2,14.1H321.2L321.2,120.4z M363.2,96c0-8.7-3.8-23.2-20.2-23.2
	c-15,0-21.1,13.6-22,23.2H363.2L363.2,96z"/>
<path id="svg_30" class="st1" d="M574.7,20.8l24.2,44l-24.2,44.2h-24.5l24.2-44.2l-24.2-44L574.7,20.8
	C574.7,20.7,574.7,20.7,574.7,20.8z M275.8,210.3h-98.2v-24.4h98.2V210.3L275.8,210.3z M206.4,120.3c1.2,14.8,15.7,21.8,32.4,21.8
	c12.2,0,22-1.6,31.7-4.7l4.7,24.2c-11.7,4.7-26,7-41.5,7c-38.9,0-61.2-22.5-61.2-58.4c0-29.1,18.1-61.2,57.9-61.2
	c37.1,0,51.1,28.8,51.1,57.2c0,6.1-0.7,11.5-1.2,14.1L206.4,120.3L206.4,120.3L206.4,120.3z M248.4,95.9c0-8.7-3.8-23.2-20.2-23.2
	c-15,0-21.1,13.6-22.1,23.2H248.4L248.4,95.9z"/>
</svg>
